<svg width="100" height="100" viewBox="0 0 100 100" fill="none" xmlns="http://www.w3.org/2000/svg">
<path d="M86.016 24.091H49.313C47.334 21.721 45.3 19.226 44.772 18.467C44.5127 17.9247 44.1049 17.4671 43.5961 17.1471C43.0873 16.8271 42.4981 16.6578 41.897 16.659H27.367C26.403 16.659 25.492 17.094 24.888 17.844L19.867 24.091H13.983C12.5292 24.0931 11.1356 24.6716 10.1076 25.6996C9.0796 26.7276 8.50114 28.1212 8.49902 29.575V77.859C8.50114 79.3126 9.07966 80.7061 10.1077 81.7337C11.1358 82.7614 12.5294 83.3394 13.983 83.341H86.015C87.4686 83.3394 88.8623 82.7614 89.8903 81.7337C90.9184 80.7061 91.4969 79.3126 91.499 77.859V29.575C91.4974 28.1212 90.9193 26.7274 89.8914 25.6993C88.8635 24.6713 87.4698 24.0929 86.016 24.091V24.091ZM81.543 63.286C81.5432 63.3726 81.526 63.4584 81.4925 63.5382C81.459 63.6181 81.4099 63.6904 81.348 63.751C81.2874 63.8125 81.2152 63.8613 81.1355 63.8946C81.0559 63.9279 80.9704 63.9451 80.884 63.945H72.105V72.725C72.105 72.899 72.035 73.066 71.912 73.191C71.7882 73.3137 71.6213 73.383 71.447 73.384H65.297C65.1225 73.3835 64.9553 73.3138 64.832 73.1903C64.7087 73.0668 64.6393 72.8995 64.639 72.725V63.945H55.859C55.7726 63.9449 55.687 63.9277 55.6072 63.8944C55.5274 63.8611 55.4549 63.8124 55.394 63.751C55.3327 63.6901 55.2841 63.6176 55.251 63.5378C55.2179 63.458 55.2009 63.3724 55.201 63.286V57.137C55.2058 56.9639 55.2766 56.7992 55.399 56.6767C55.5213 56.5541 55.6859 56.483 55.859 56.478H64.638V47.698C64.638 47.335 64.932 47.04 65.297 47.04L71.447 47.041C71.811 47.041 72.106 47.334 72.106 47.699V56.477H80.886C81.25 56.477 81.545 56.771 81.545 57.136L81.543 63.286V63.286Z" fill="#FCFCFC"/>
</svg>
