<svg width="39" height="32" viewBox="0 0 39 32" fill="none" xmlns="http://www.w3.org/2000/svg">
<g clip-path="url(#clip0_711_27)" filter="url(#filter0_d_711_27)">
<path d="M23.4789 22.099V22.008H17.7499V22.099C17.7499 22.6032 17.5496 23.0867 17.1931 23.4432C16.8366 23.7997 16.3531 24 15.8489 24C15.3447 24 14.8612 23.7997 14.5047 23.4432C14.1482 23.0867 13.9479 22.6032 13.9479 22.099V22.008H13.2969C13.0184 22.0079 12.7483 21.9126 12.5314 21.738C12.3144 21.5634 12.1636 21.32 12.1039 21.048L12.1029 21.04L8.28591 2.967L5.02491 2.424C4.71433 2.36126 4.4403 2.18025 4.26072 1.91921C4.08113 1.65817 4.01005 1.33754 4.0625 1.02506C4.11495 0.71258 4.28681 0.432726 4.54179 0.244621C4.79676 0.0565162 5.11487 -0.0251067 5.42891 0.0169967L5.42291 0.0159967L9.50391 0.695997C10.0009 0.780997 10.3909 1.157 10.4949 1.639L10.4959 1.647L11.1879 4.911L23.0919 5.903C23.0219 6.259 22.9819 6.669 22.9799 7.089V7.091C22.9799 7.472 23.0119 7.845 23.0719 8.209L23.0669 8.17C22.7769 8.282 22.5439 8.49 22.4039 8.755L22.4009 8.762C22.2404 9.05648 22.1807 9.3954 22.2309 9.727L22.2299 9.719L22.9489 14.909C22.9929 15.242 23.1449 15.534 23.3669 15.754C23.5689 15.955 23.8469 16.08 24.1529 16.084H24.1539C24.2219 16.084 24.2889 16.077 24.3529 16.065L24.3459 16.066C24.6869 15.9769 24.9812 15.7615 25.1693 15.4635C25.3574 15.1655 25.4252 14.8071 25.3589 14.461L25.3599 14.47L24.9999 11.878C26.2441 13.1084 27.9241 13.7974 29.6739 13.795H29.6759C29.7189 13.795 29.7619 13.795 29.8039 13.789H29.8959L29.2269 17.691C29.2107 17.7854 29.1617 17.871 29.0885 17.9329C29.0153 17.9947 28.9227 18.0287 28.8269 18.029H13.9579L14.2849 19.576H28.4419L28.4779 19.575C28.8017 19.575 29.1123 19.7036 29.3413 19.9326C29.5703 20.1616 29.6989 20.4722 29.6989 20.796C29.6989 21.1198 29.5703 21.4304 29.3413 21.6594C29.1123 21.8884 28.8017 22.017 28.4779 22.017L28.4399 22.016H28.4419H27.2779V22.107C27.278 22.3566 27.229 22.6039 27.1336 22.8346C27.0382 23.0652 26.8983 23.2749 26.7218 23.4515C26.5454 23.6281 26.3359 23.7683 26.1053 23.8639C25.8747 23.9596 25.6275 24.0089 25.3779 24.009C25.1283 24.0091 24.881 23.9601 24.6503 23.8647C24.4197 23.7693 24.21 23.6293 24.0334 23.4529C23.8568 23.2765 23.7167 23.067 23.621 22.8364C23.5253 22.6058 23.476 22.3586 23.4759 22.109V22.107L23.4789 22.099ZM24.8369 22.099C24.8363 22.1742 24.8515 22.2488 24.8814 22.3178C24.9113 22.3868 24.9553 22.4489 25.0106 22.4999C25.0659 22.5509 25.1312 22.5898 25.2025 22.6141C25.2737 22.6384 25.3492 22.6476 25.4241 22.641C25.4991 22.6344 25.5718 22.6123 25.6377 22.5759C25.7036 22.5396 25.7611 22.4899 25.8067 22.43C25.8522 22.3701 25.8848 22.3014 25.9022 22.2282C25.9196 22.155 25.9216 22.079 25.9079 22.005V22.008H24.8449C24.8399 22.0374 24.8375 22.0672 24.8379 22.097V22.099H24.8369ZM15.3089 22.099C15.3091 22.1736 15.3248 22.2474 15.355 22.3157C15.3852 22.3839 15.4293 22.4451 15.4844 22.4955C15.5395 22.5458 15.6044 22.5841 15.6751 22.6081C15.7458 22.632 15.8207 22.641 15.8951 22.6344C15.9694 22.6279 16.0416 22.606 16.107 22.5701C16.1725 22.5342 16.2298 22.4852 16.2752 22.426C16.3207 22.3668 16.3534 22.2988 16.3713 22.2264C16.3891 22.1539 16.3917 22.0785 16.3789 22.005V22.008H15.3169C15.3119 22.0374 15.3095 22.0672 15.3099 22.097V22.099H15.3089ZM19.2809 8.127C18.94 8.21504 18.6453 8.42946 18.4566 8.72677C18.2679 9.02408 18.1994 9.38202 18.2649 9.728L18.2639 9.719L18.9829 14.909C19.0269 15.242 19.1789 15.534 19.4009 15.754C19.6029 15.955 19.8799 16.081 20.1869 16.084H20.1879C20.2559 16.084 20.3229 16.077 20.3869 16.065L20.3799 16.066C20.7212 15.9773 21.0159 15.7621 21.2042 15.464C21.3925 15.1659 21.4604 14.8073 21.3939 14.461L21.3949 14.47L20.6759 9.28C20.6344 8.95968 20.4873 8.66233 20.2579 8.435C20.13 8.30884 19.9737 8.21507 19.8022 8.1615C19.6307 8.10792 19.4489 8.0961 19.2719 8.127L19.2789 8.126L19.2809 8.127ZM15.3139 8.127C14.9733 8.21546 14.6791 8.43005 14.4908 8.72732C14.3026 9.02458 14.2343 9.38229 14.2999 9.728L14.2989 9.719L15.0179 14.909C15.0619 15.242 15.2139 15.534 15.4359 15.754C15.6379 15.955 15.9159 16.08 16.2219 16.084H16.2229C16.2909 16.084 16.3579 16.077 16.4219 16.065L16.4149 16.066C16.7559 15.9769 17.0502 15.7615 17.2383 15.4635C17.4264 15.1655 17.4942 14.8071 17.4279 14.461L17.4289 14.47L16.7089 9.285C16.6674 8.96468 16.5203 8.66733 16.2909 8.44C16.0823 8.23105 15.8001 8.11222 15.5049 8.109H15.5019C15.4362 8.10885 15.3705 8.11487 15.3059 8.127L15.3129 8.126L15.3139 8.127ZM23.9979 7.095C23.9979 5.58857 24.5963 4.14384 25.6615 3.07863C26.7267 2.01342 28.1715 1.415 29.6779 1.415C31.1843 1.415 32.6291 2.01342 33.6943 3.07863C34.7595 4.14384 35.3579 5.58857 35.3579 7.095C35.3579 8.60169 34.7594 10.0467 33.694 11.1121C32.6286 12.1775 31.1836 12.776 29.6769 12.776C28.1702 12.776 26.7252 12.1775 25.6598 11.1121C24.5944 10.0467 23.9959 8.60169 23.9959 7.095H23.9979ZM25.6249 7.095C25.6249 8.17018 26.052 9.20134 26.8123 9.96161C27.5726 10.7219 28.6037 11.149 29.6789 11.149C30.7541 11.149 31.7852 10.7219 32.5455 9.96161C33.3058 9.20134 33.7329 8.17018 33.7329 7.095C33.7329 6.01954 33.3057 4.98814 32.5452 4.22768C31.7848 3.46722 30.7534 3.04 29.6779 3.04C28.6025 3.04 27.571 3.46722 26.8106 4.22768C26.0501 4.98814 25.6229 6.01954 25.6229 7.095H25.6249ZM28.0549 7.908C27.839 7.908 27.632 7.82224 27.4793 7.66958C27.3267 7.51693 27.2409 7.30988 27.2409 7.094C27.2409 6.87811 27.3267 6.67107 27.4793 6.51841C27.632 6.36576 27.839 6.28 28.0549 6.28H31.2949C31.5108 6.28 31.7178 6.36576 31.8705 6.51841C32.0231 6.67107 32.1089 6.87811 32.1089 7.094C32.1089 7.30988 32.0231 7.51693 31.8705 7.66958C31.7178 7.82224 31.5108 7.908 31.2949 7.908H28.0549Z" fill="#FCFCFC"/>
</g>
<defs>
<filter id="filter0_d_711_27" x="0" y="0" width="39" height="32" filterUnits="userSpaceOnUse" color-interpolation-filters="sRGB">
<feFlood flood-opacity="0" result="BackgroundImageFix"/>
<feColorMatrix in="SourceAlpha" type="matrix" values="0 0 0 0 0 0 0 0 0 0 0 0 0 0 0 0 0 0 127 0" result="hardAlpha"/>
<feOffset dy="4"/>
<feGaussianBlur stdDeviation="2"/>
<feComposite in2="hardAlpha" operator="out"/>
<feColorMatrix type="matrix" values="0 0 0 0 0 0 0 0 0 0 0 0 0 0 0 0 0 0 0.25 0"/>
<feBlend mode="normal" in2="BackgroundImageFix" result="effect1_dropShadow_711_27"/>
<feBlend mode="normal" in="SourceGraphic" in2="effect1_dropShadow_711_27" result="shape"/>
</filter>
<clipPath id="clip0_711_27">
<rect width="31" height="24" fill="white" transform="translate(4)"/>
</clipPath>
</defs>
</svg>
