<svg width="20" height="20" viewBox="0 0 20 20" fill="none" xmlns="http://www.w3.org/2000/svg">
<path d="M10.9998 16.755V19H8.99979V16.857C7.28779 16.757 5.93379 16.268 4.75879 15.06L6.47679 13.32C7.33579 14.19 8.49979 14.48 9.75879 14.48C11.3238 14.48 12.1638 13.881 12.1638 12.778C12.1638 12.295 12.0308 11.889 11.7438 11.618C11.4768 11.367 11.1718 11.231 10.5418 11.135L8.89979 10.903C7.73579 10.729 6.87779 10.362 6.26579 9.762C5.61779 9.105 5.29279 8.216 5.29279 7.055C5.29279 4.9 6.67479 3.312 8.99979 2.955V1H10.9998V2.932C12.3818 3.077 13.4648 3.552 14.4148 4.483L12.7358 6.165C11.8768 5.333 10.8468 5.218 9.94879 5.218C8.53679 5.218 7.84979 6.01 7.84979 6.958C7.84979 7.306 7.96479 7.674 8.25079 7.944C8.51779 8.196 8.95679 8.408 9.51079 8.485L11.1128 8.717C12.3538 8.891 13.1358 9.239 13.7088 9.78C14.4348 10.476 14.7588 11.482 14.7588 12.7C14.7588 14.95 13.1918 16.362 10.9998 16.755V16.755Z" fill="#FCFCFC"/>
</svg>
