<svg width="1024" height="1024" viewBox="0 0 1024 1024" fill="none" xmlns="http://www.w3.org/2000/svg">
<path d="M192 352H832L896 896H128L192 352ZM320 576H384V448H320V576ZM640 576H704V448H640V576ZM384 288H320C320 237.078 340.229 188.242 376.236 152.236C412.242 116.229 461.078 96 512 96C562.922 96 611.758 116.229 647.765 152.236C683.772 188.242 704 237.078 704 288H640C640 254.052 626.514 221.495 602.51 197.49C578.505 173.486 545.948 160 512 160C478.052 160 445.495 173.486 421.49 197.49C397.486 221.495 384 254.052 384 288V288Z" fill="#FCFCFC"/>
</svg>
