<svg width="512" height="512" viewBox="0 0 512 512" fill="none" xmlns="http://www.w3.org/2000/svg">
<g filter="url(#filter0_d_703_16)">
<path d="M464 448V267.85C453.249 271.867 441.912 274.09 430.44 274.43C429.26 274.43 428.14 274.48 427.04 274.48C406.968 274.534 387.278 268.993 370.18 258.48C353.085 268.992 333.398 274.532 313.33 274.48C293.344 274.507 273.756 268.892 256.82 258.28C239.648 268.933 219.828 274.546 199.62 274.48C179.497 274.507 159.78 268.812 142.77 258.06C125.76 268.812 106.043 274.507 85.92 274.48C84.83 274.48 83.73 274.48 82.55 274.43H82.49C70.6841 274.079 59.0227 271.733 48 267.49V448H16V480H496V448H464ZM224 384H128V308C128 306.939 128.421 305.922 129.172 305.172C129.922 304.421 130.939 304 132 304H220C221.061 304 222.078 304.421 222.828 305.172C223.579 305.922 224 306.939 224 308V384ZM384 448H304V308C304 306.939 304.421 305.922 305.172 305.172C305.922 304.421 306.939 304 308 304H380C381.061 304 382.078 304.421 382.828 305.172C383.579 305.922 384 306.939 384 308V448ZM492.57 170.28L445.89 64C432 32 432 32 400 32H112C80 32 80 32 66.06 64L19.38 170.28C10.38 189.69 22.27 209.62 22.28 209.63L22.69 210.29C23.11 210.95 23.82 212.04 24.31 212.66C24.41 212.79 24.5 212.93 24.59 213.06L29.83 219.45L35.14 224.59L35.56 224.95C38.5123 227.469 41.6699 229.737 45 231.73V231.78C55.8831 238.373 68.2822 242.048 81 242.45H83.47C102.713 242.486 121.254 235.229 135.36 222.14C137.397 220.252 139.323 218.249 141.13 216.14C142.943 218.247 144.872 220.25 146.91 222.14C161.016 235.229 179.557 242.486 198.8 242.45C222.08 242.45 242.87 232.45 256.43 216.89C256.45 216.871 256.477 216.86 256.505 216.86C256.533 216.86 256.56 216.871 256.58 216.89L262.24 222.15C276.349 235.24 294.894 242.497 314.14 242.46C337.43 242.46 358.25 232.46 371.8 216.85C385.36 232.46 406.17 242.46 429.47 242.46H431.96C444.359 241.997 456.422 238.309 466.96 231.76C467.91 231.19 468.82 230.59 469.74 229.99C476.848 225.196 483.034 219.159 488 212.17L490 209.17C490.9 207.13 501.21 188.87 492.57 170.28Z" fill="#FCFCFC"/>
</g>
<defs>
<filter id="filter0_d_703_16" x="-4" y="0" width="520" height="520" filterUnits="userSpaceOnUse" color-interpolation-filters="sRGB">
<feFlood flood-opacity="0" result="BackgroundImageFix"/>
<feColorMatrix in="SourceAlpha" type="matrix" values="0 0 0 0 0 0 0 0 0 0 0 0 0 0 0 0 0 0 127 0" result="hardAlpha"/>
<feOffset dy="4"/>
<feGaussianBlur stdDeviation="2"/>
<feComposite in2="hardAlpha" operator="out"/>
<feColorMatrix type="matrix" values="0 0 0 0 0 0 0 0 0 0 0 0 0 0 0 0 0 0 0.25 0"/>
<feBlend mode="normal" in2="BackgroundImageFix" result="effect1_dropShadow_703_16"/>
<feBlend mode="normal" in="SourceGraphic" in2="effect1_dropShadow_703_16" result="shape"/>
</filter>
</defs>
</svg>
