<svg width="1024" height="1024" viewBox="0 0 1024 1024" fill="none" xmlns="http://www.w3.org/2000/svg">
<path d="M352 192V95.936C352 87.4491 355.371 79.3098 361.373 73.3086C367.374 67.3074 375.513 63.936 384 63.936H640C648.487 63.936 656.626 67.3074 662.627 73.3086C668.629 79.3098 672 87.4491 672 95.936V192H928C936.487 192 944.626 195.371 950.627 201.373C956.629 207.374 960 215.513 960 224C960 232.487 956.629 240.626 950.627 246.627C944.626 252.629 936.487 256 928 256H96C87.5131 256 79.3737 252.629 73.3726 246.627C67.3714 240.626 64 232.487 64 224C64 215.513 67.3714 207.374 73.3726 201.373C79.3737 195.371 87.5131 192 96 192H352ZM416 192H608V128H416V192ZM192 960C183.513 960 175.374 956.629 169.373 950.627C163.371 944.626 160 936.487 160 928V256H864V928C864 936.487 860.629 944.626 854.627 950.627C848.626 956.629 840.487 960 832 960H192ZM416 768C424.487 768 432.626 764.629 438.627 758.627C444.629 752.626 448 744.487 448 736V416C448 407.513 444.629 399.374 438.627 393.373C432.626 387.371 424.487 384 416 384C407.513 384 399.374 387.371 393.373 393.373C387.371 399.374 384 407.513 384 416V736C384 744.487 387.371 752.626 393.373 758.627C399.374 764.629 407.513 768 416 768ZM608 768C616.487 768 624.626 764.629 630.627 758.627C636.629 752.626 640 744.487 640 736V416C640 407.513 636.629 399.374 630.627 393.373C624.626 387.371 616.487 384 608 384C599.513 384 591.374 387.371 585.373 393.373C579.371 399.374 576 407.513 576 416V736C576 744.487 579.371 752.626 585.373 758.627C591.374 764.629 599.513 768 608 768Z" fill="#FCFCFC"/>
</svg>
